<mxfile host="app.diagrams.net" agent="Mozilla/5.0 (Windows NT 10.0; Win64; x64) AppleWebKit/537.36 (KHTML, like Gecko) Chrome/131.0.0.0 Safari/537.36" version="25.0.3">
  <diagram name="Page-1" id="fIcQUxTGCepL4Q0xowB8">
    <mxGraphModel dx="3667" dy="1560" grid="1" gridSize="10" guides="1" tooltips="1" connect="1" arrows="1" fold="1" page="0" pageScale="1" pageWidth="850" pageHeight="1100" math="0" shadow="0">
      <root>
        <mxCell id="0" />
        <mxCell id="3OyVJiL9PxeMtA3ROown-52" value="Backround" parent="0" />
        <mxCell id="3OyVJiL9PxeMtA3ROown-63" value="" style="rounded=0;whiteSpace=wrap;html=1;fillColor=#f5f5f5;strokeColor=#666666;opacity=90;gradientColor=#A680B8;gradientDirection=north;" vertex="1" parent="3OyVJiL9PxeMtA3ROown-52">
          <mxGeometry x="-760" y="-320" width="1440" height="1000" as="geometry" />
        </mxCell>
        <mxCell id="3OyVJiL9PxeMtA3ROown-53" value="" style="rounded=0;whiteSpace=wrap;html=1;fillColor=#f5f5f5;strokeColor=#000000;gradientColor=#67AB9F;gradientDirection=north;" vertex="1" parent="3OyVJiL9PxeMtA3ROown-52">
          <mxGeometry x="-320" y="-280" width="960" height="920" as="geometry" />
        </mxCell>
        <mxCell id="3OyVJiL9PxeMtA3ROown-64" value="&lt;span style=&quot;font-size: 24px;&quot;&gt;Test&lt;/span&gt;" style="text;html=1;align=center;verticalAlign=middle;whiteSpace=wrap;rounded=0;" vertex="1" parent="3OyVJiL9PxeMtA3ROown-52">
          <mxGeometry x="-750" y="-300" width="80" height="30" as="geometry" />
        </mxCell>
        <mxCell id="3yvrbYruW_UysVOHIJBn-9" value="celelalte 4" parent="0" />
        <mxCell id="3yvrbYruW_UysVOHIJBn-71" value="&lt;div style=&quot;text-align: center;&quot;&gt;&lt;br&gt;&lt;/div&gt;" style="rounded=0;whiteSpace=wrap;html=1;fillColor=#dae8fc;align=right;gradientColor=#7ea6e0;strokeColor=#6c8ebf;gradientDirection=south;" parent="3yvrbYruW_UysVOHIJBn-9" vertex="1">
          <mxGeometry x="100" y="-160" width="380" height="200" as="geometry" />
        </mxCell>
        <mxCell id="3yvrbYruW_UysVOHIJBn-72" value="&lt;div style=&quot;text-align: center;&quot;&gt;&lt;br&gt;&lt;/div&gt;" style="rounded=0;whiteSpace=wrap;html=1;fillColor=#dae8fc;align=right;gradientColor=#7ea6e0;strokeColor=#6c8ebf;gradientDirection=south;" parent="3yvrbYruW_UysVOHIJBn-9" vertex="1">
          <mxGeometry x="110" y="-170" width="380" height="200" as="geometry" />
        </mxCell>
        <mxCell id="3yvrbYruW_UysVOHIJBn-73" value="&lt;div style=&quot;text-align: center;&quot;&gt;&lt;br&gt;&lt;/div&gt;" style="rounded=0;whiteSpace=wrap;html=1;fillColor=#dae8fc;align=right;gradientColor=#7ea6e0;strokeColor=#6c8ebf;gradientDirection=south;" parent="3yvrbYruW_UysVOHIJBn-9" vertex="1">
          <mxGeometry x="120" y="-180" width="380" height="200" as="geometry" />
        </mxCell>
        <mxCell id="3yvrbYruW_UysVOHIJBn-74" value="&lt;div style=&quot;text-align: center;&quot;&gt;&lt;br&gt;&lt;/div&gt;" style="rounded=0;whiteSpace=wrap;html=1;fillColor=#dae8fc;align=right;gradientColor=#7ea6e0;strokeColor=#6c8ebf;gradientDirection=south;" parent="3yvrbYruW_UysVOHIJBn-9" vertex="1">
          <mxGeometry x="130" y="-190" width="380" height="200" as="geometry" />
        </mxCell>
        <mxCell id="3yvrbYruW_UysVOHIJBn-75" value="&lt;div style=&quot;text-align: center;&quot;&gt;&lt;br&gt;&lt;/div&gt;" style="rounded=0;whiteSpace=wrap;html=1;fillColor=#dae8fc;align=right;gradientColor=#7ea6e0;strokeColor=#6c8ebf;gradientDirection=south;" parent="3yvrbYruW_UysVOHIJBn-9" vertex="1">
          <mxGeometry x="100" y="360" width="380" height="200" as="geometry" />
        </mxCell>
        <mxCell id="3yvrbYruW_UysVOHIJBn-76" value="&lt;div style=&quot;text-align: center;&quot;&gt;&lt;br&gt;&lt;/div&gt;" style="rounded=0;whiteSpace=wrap;html=1;fillColor=#dae8fc;align=right;gradientColor=#7ea6e0;strokeColor=#6c8ebf;gradientDirection=south;" parent="3yvrbYruW_UysVOHIJBn-9" vertex="1">
          <mxGeometry x="110" y="350" width="380" height="200" as="geometry" />
        </mxCell>
        <mxCell id="3yvrbYruW_UysVOHIJBn-77" value="&lt;div style=&quot;text-align: center;&quot;&gt;&lt;br&gt;&lt;/div&gt;" style="rounded=0;whiteSpace=wrap;html=1;fillColor=#dae8fc;align=right;gradientColor=#7ea6e0;strokeColor=#6c8ebf;gradientDirection=south;" parent="3yvrbYruW_UysVOHIJBn-9" vertex="1">
          <mxGeometry x="120" y="340" width="380" height="200" as="geometry" />
        </mxCell>
        <mxCell id="3yvrbYruW_UysVOHIJBn-78" value="&lt;div style=&quot;text-align: center;&quot;&gt;&lt;br&gt;&lt;/div&gt;" style="rounded=0;whiteSpace=wrap;html=1;fillColor=#dae8fc;align=right;gradientColor=#7ea6e0;strokeColor=#6c8ebf;gradientDirection=south;" parent="3yvrbYruW_UysVOHIJBn-9" vertex="1">
          <mxGeometry x="130" y="330" width="380" height="200" as="geometry" />
        </mxCell>
        <mxCell id="3OyVJiL9PxeMtA3ROown-18" value="Upstream router Interface" style="rounded=0;whiteSpace=wrap;html=1;fillColor=#f5f5f5;gradientColor=#F19C99;strokeColor=#666666;gradientDirection=north;" vertex="1" parent="3yvrbYruW_UysVOHIJBn-9">
          <mxGeometry x="720" y="-160" width="70" height="200" as="geometry" />
        </mxCell>
        <mxCell id="3OyVJiL9PxeMtA3ROown-19" value="Upstream router Interface" style="rounded=0;whiteSpace=wrap;html=1;fillColor=#f5f5f5;gradientColor=#F19C99;strokeColor=#666666;gradientDirection=north;" vertex="1" parent="3yvrbYruW_UysVOHIJBn-9">
          <mxGeometry x="730" y="-170" width="70" height="200" as="geometry" />
        </mxCell>
        <mxCell id="3OyVJiL9PxeMtA3ROown-20" value="Upstream router Interface" style="rounded=0;whiteSpace=wrap;html=1;fillColor=#f5f5f5;gradientColor=#F19C99;strokeColor=#666666;gradientDirection=north;" vertex="1" parent="3yvrbYruW_UysVOHIJBn-9">
          <mxGeometry x="740" y="-180" width="70" height="200" as="geometry" />
        </mxCell>
        <mxCell id="3OyVJiL9PxeMtA3ROown-21" value="Upstream router Interface" style="rounded=0;whiteSpace=wrap;html=1;fillColor=#f5f5f5;gradientColor=#F19C99;strokeColor=#666666;gradientDirection=north;" vertex="1" parent="3yvrbYruW_UysVOHIJBn-9">
          <mxGeometry x="750" y="-190" width="70" height="200" as="geometry" />
        </mxCell>
        <mxCell id="3OyVJiL9PxeMtA3ROown-22" value="" style="rounded=0;whiteSpace=wrap;html=1;fillColor=#f5f5f5;gradientColor=#F19C99;strokeColor=#666666;gradientDirection=north;align=center;" vertex="1" parent="3yvrbYruW_UysVOHIJBn-9">
          <mxGeometry x="720" y="360" width="70" height="200" as="geometry" />
        </mxCell>
        <mxCell id="3OyVJiL9PxeMtA3ROown-23" value="" style="rounded=0;whiteSpace=wrap;html=1;fillColor=#f5f5f5;gradientColor=#F19C99;strokeColor=#666666;gradientDirection=north;align=center;" vertex="1" parent="3yvrbYruW_UysVOHIJBn-9">
          <mxGeometry x="730" y="350" width="70" height="200" as="geometry" />
        </mxCell>
        <mxCell id="3OyVJiL9PxeMtA3ROown-24" value="" style="rounded=0;whiteSpace=wrap;html=1;fillColor=#f5f5f5;gradientColor=#F19C99;strokeColor=#666666;gradientDirection=north;align=center;" vertex="1" parent="3yvrbYruW_UysVOHIJBn-9">
          <mxGeometry x="740" y="340" width="70" height="200" as="geometry" />
        </mxCell>
        <mxCell id="3OyVJiL9PxeMtA3ROown-25" value="" style="rounded=0;whiteSpace=wrap;html=1;fillColor=#f5f5f5;gradientColor=#F19C99;strokeColor=#666666;gradientDirection=north;align=center;" vertex="1" parent="3yvrbYruW_UysVOHIJBn-9">
          <mxGeometry x="750" y="330" width="70" height="200" as="geometry" />
        </mxCell>
        <mxCell id="1" value="Cu o singura de fiecare" parent="0" />
        <mxCell id="3yvrbYruW_UysVOHIJBn-44" value="&lt;div style=&quot;text-align: center;&quot;&gt;&lt;br&gt;&lt;/div&gt;" style="rounded=0;whiteSpace=wrap;html=1;fillColor=#dae8fc;align=right;gradientColor=#7ea6e0;strokeColor=#6c8ebf;gradientDirection=south;" parent="1" vertex="1">
          <mxGeometry x="140" y="320" width="380" height="200" as="geometry" />
        </mxCell>
        <mxCell id="3yvrbYruW_UysVOHIJBn-40" value="&lt;div style=&quot;text-align: center;&quot;&gt;&lt;br&gt;&lt;/div&gt;" style="rounded=0;whiteSpace=wrap;html=1;fillColor=#dae8fc;align=right;gradientColor=#7ea6e0;strokeColor=#6c8ebf;gradientDirection=south;" parent="1" vertex="1">
          <mxGeometry x="140" y="-200" width="380" height="200" as="geometry" />
        </mxCell>
        <mxCell id="KQq-jne4eLTsKQbyyCht-1" value="&lt;font style=&quot;font-size: 24px;&quot;&gt;DUT&lt;/font&gt;" style="rounded=0;whiteSpace=wrap;html=1;gradientDirection=north;fillColor=#f5f5f5;strokeColor=#666666;gradientColor=#b3b3b3;shadow=1;glass=0;" parent="1" vertex="1">
          <mxGeometry x="1100" y="-200" width="180" height="720" as="geometry" />
        </mxCell>
        <mxCell id="3OyVJiL9PxeMtA3ROown-7" style="edgeStyle=orthogonalEdgeStyle;rounded=0;orthogonalLoop=1;jettySize=auto;html=1;exitX=1;exitY=0.5;exitDx=0;exitDy=0;entryX=0.5;entryY=1;entryDx=0;entryDy=0;" edge="1" parent="1" source="KQq-jne4eLTsKQbyyCht-2" target="KQq-jne4eLTsKQbyyCht-1">
          <mxGeometry relative="1" as="geometry" />
        </mxCell>
        <mxCell id="KQq-jne4eLTsKQbyyCht-2" value="&lt;font style=&quot;font-size: 24px;&quot;&gt;CLK&lt;/font&gt;" style="rhombus;whiteSpace=wrap;html=1;rounded=0;fillColor=#fff2cc;gradientColor=#FFE599;strokeColor=#d6b656;gradientDirection=north;" parent="1" vertex="1">
          <mxGeometry x="880" y="570" width="150" height="80" as="geometry" />
        </mxCell>
        <mxCell id="3OyVJiL9PxeMtA3ROown-29" style="edgeStyle=orthogonalEdgeStyle;rounded=0;orthogonalLoop=1;jettySize=auto;html=1;exitX=0;exitY=0.75;exitDx=0;exitDy=0;" edge="1" parent="1" source="KQq-jne4eLTsKQbyyCht-4" target="3yvrbYruW_UysVOHIJBn-36">
          <mxGeometry relative="1" as="geometry" />
        </mxCell>
        <mxCell id="KQq-jne4eLTsKQbyyCht-4" value="Upstream router Interface" style="rounded=0;whiteSpace=wrap;html=1;fillColor=#f5f5f5;gradientColor=#F19C99;strokeColor=#666666;gradientDirection=north;" parent="1" vertex="1">
          <mxGeometry x="760" y="-200" width="70" height="200" as="geometry" />
        </mxCell>
        <mxCell id="3OyVJiL9PxeMtA3ROown-33" style="edgeStyle=orthogonalEdgeStyle;rounded=0;orthogonalLoop=1;jettySize=auto;html=1;exitX=0;exitY=0.75;exitDx=0;exitDy=0;entryX=1;entryY=0.5;entryDx=0;entryDy=0;" edge="1" parent="1" source="KQq-jne4eLTsKQbyyCht-5" target="3yvrbYruW_UysVOHIJBn-37">
          <mxGeometry relative="1" as="geometry" />
        </mxCell>
        <mxCell id="KQq-jne4eLTsKQbyyCht-5" value="Downstream router Interface" style="rounded=0;whiteSpace=wrap;html=1;fillColor=#f5f5f5;gradientColor=#F19C99;strokeColor=#666666;gradientDirection=north;align=center;" parent="1" vertex="1">
          <mxGeometry x="760" y="320" width="70" height="200" as="geometry" />
        </mxCell>
        <mxCell id="3yvrbYruW_UysVOHIJBn-4" value="Reset Interface" style="rounded=0;whiteSpace=wrap;html=1;fillColor=#f5f5f5;gradientColor=#F19C99;strokeColor=#666666;gradientDirection=north;" parent="1" vertex="1">
          <mxGeometry x="760" y="80" width="70" height="200" as="geometry" />
        </mxCell>
        <mxCell id="3yvrbYruW_UysVOHIJBn-33" value="&lt;font style=&quot;font-size: 18px;&quot;&gt;Driver&lt;/font&gt;&lt;div&gt;&lt;font style=&quot;font-size: 18px;&quot;&gt;Upstream&lt;/font&gt;&lt;/div&gt;" style="rounded=0;whiteSpace=wrap;html=1;fillColor=#d5e8d4;gradientColor=#97d077;strokeColor=#82b366;gradientDirection=north;" parent="1" vertex="1">
          <mxGeometry x="360" y="-180" width="140" height="60" as="geometry" />
        </mxCell>
        <mxCell id="3OyVJiL9PxeMtA3ROown-32" style="edgeStyle=orthogonalEdgeStyle;rounded=0;orthogonalLoop=1;jettySize=auto;html=1;exitX=1;exitY=0.5;exitDx=0;exitDy=0;entryX=0;entryY=0.25;entryDx=0;entryDy=0;" edge="1" parent="1" source="3yvrbYruW_UysVOHIJBn-35" target="KQq-jne4eLTsKQbyyCht-5">
          <mxGeometry relative="1" as="geometry" />
        </mxCell>
        <mxCell id="3yvrbYruW_UysVOHIJBn-35" value="&lt;font style=&quot;font-size: 18px;&quot;&gt;Driver Downstream&lt;/font&gt;" style="rounded=0;whiteSpace=wrap;html=1;fillColor=#d5e8d4;gradientColor=#97d077;strokeColor=#82b366;gradientDirection=north;" parent="1" vertex="1">
          <mxGeometry x="360" y="340" width="140" height="60" as="geometry" />
        </mxCell>
        <mxCell id="3OyVJiL9PxeMtA3ROown-9" value="" style="edgeStyle=orthogonalEdgeStyle;rounded=0;orthogonalLoop=1;jettySize=auto;html=1;" edge="1" parent="1" source="3yvrbYruW_UysVOHIJBn-36" target="3yvrbYruW_UysVOHIJBn-33">
          <mxGeometry relative="1" as="geometry" />
        </mxCell>
        <mxCell id="3OyVJiL9PxeMtA3ROown-42" style="edgeStyle=orthogonalEdgeStyle;rounded=0;orthogonalLoop=1;jettySize=auto;html=1;exitX=0;exitY=0.5;exitDx=0;exitDy=0;entryX=1;entryY=0.25;entryDx=0;entryDy=0;" edge="1" parent="1" source="3yvrbYruW_UysVOHIJBn-36" target="3yvrbYruW_UysVOHIJBn-50">
          <mxGeometry relative="1" as="geometry">
            <Array as="points">
              <mxPoint x="110" y="-50" />
              <mxPoint x="110" y="55" />
            </Array>
          </mxGeometry>
        </mxCell>
        <mxCell id="3yvrbYruW_UysVOHIJBn-36" value="&lt;font style=&quot;font-size: 18px;&quot;&gt;Monitor Upstream&lt;/font&gt;" style="rounded=0;whiteSpace=wrap;html=1;fillColor=#fff2cc;strokeColor=#d6b656;gradientDirection=north;gradientColor=#ffd966;" parent="1" vertex="1">
          <mxGeometry x="360" y="-80" width="140" height="60" as="geometry" />
        </mxCell>
        <mxCell id="3OyVJiL9PxeMtA3ROown-43" style="edgeStyle=orthogonalEdgeStyle;rounded=0;orthogonalLoop=1;jettySize=auto;html=1;exitX=0;exitY=0.5;exitDx=0;exitDy=0;entryX=1;entryY=0.75;entryDx=0;entryDy=0;" edge="1" parent="1" source="3yvrbYruW_UysVOHIJBn-37" target="3yvrbYruW_UysVOHIJBn-50">
          <mxGeometry relative="1" as="geometry">
            <Array as="points">
              <mxPoint x="110" y="470" />
              <mxPoint x="110" y="225" />
            </Array>
          </mxGeometry>
        </mxCell>
        <mxCell id="3yvrbYruW_UysVOHIJBn-37" value="&lt;font style=&quot;font-size: 18px;&quot;&gt;Monitor Downstream&lt;/font&gt;" style="rounded=0;whiteSpace=wrap;html=1;fillColor=#fff2cc;gradientColor=#ffd966;strokeColor=#d6b656;gradientDirection=north;" parent="1" vertex="1">
          <mxGeometry x="360" y="440" width="140" height="60" as="geometry" />
        </mxCell>
        <mxCell id="3OyVJiL9PxeMtA3ROown-40" style="edgeStyle=orthogonalEdgeStyle;rounded=0;orthogonalLoop=1;jettySize=auto;html=1;exitX=1;exitY=0.5;exitDx=0;exitDy=0;entryX=0;entryY=0.5;entryDx=0;entryDy=0;" edge="1" parent="1" source="3yvrbYruW_UysVOHIJBn-38" target="3yvrbYruW_UysVOHIJBn-33">
          <mxGeometry relative="1" as="geometry" />
        </mxCell>
        <mxCell id="3yvrbYruW_UysVOHIJBn-38" value="&lt;font style=&quot;font-size: 18px;&quot;&gt;Sequencer&lt;/font&gt;&lt;div&gt;&lt;font style=&quot;font-size: 18px;&quot;&gt;Upstream&lt;/font&gt;&lt;/div&gt;" style="rounded=0;whiteSpace=wrap;html=1;fillColor=#e6d0de;gradientColor=#d5739d;strokeColor=#996185;gradientDirection=north;" parent="1" vertex="1">
          <mxGeometry x="160" y="-180" width="140" height="60" as="geometry" />
        </mxCell>
        <mxCell id="3OyVJiL9PxeMtA3ROown-34" value="" style="edgeStyle=orthogonalEdgeStyle;rounded=0;orthogonalLoop=1;jettySize=auto;html=1;" edge="1" parent="1" source="3yvrbYruW_UysVOHIJBn-39" target="3yvrbYruW_UysVOHIJBn-35">
          <mxGeometry relative="1" as="geometry" />
        </mxCell>
        <mxCell id="3yvrbYruW_UysVOHIJBn-39" value="&lt;font style=&quot;font-size: 18px;&quot;&gt;Sequencer Downstream&lt;/font&gt;" style="rounded=0;whiteSpace=wrap;html=1;fillColor=#e6d0de;gradientColor=#d5739d;strokeColor=#996185;gradientDirection=north;" parent="1" vertex="1">
          <mxGeometry x="160" y="340" width="140" height="60" as="geometry" />
        </mxCell>
        <mxCell id="3yvrbYruW_UysVOHIJBn-42" value="&lt;font style=&quot;font-size: 18px;&quot;&gt;Agent Upstream&lt;/font&gt;" style="text;html=1;align=center;verticalAlign=middle;whiteSpace=wrap;rounded=0;" parent="1" vertex="1">
          <mxGeometry x="150" y="-40" width="140" height="30" as="geometry" />
        </mxCell>
        <mxCell id="3yvrbYruW_UysVOHIJBn-46" value="" style="rounded=0;whiteSpace=wrap;html=1;fillColor=#dae8fc;align=right;gradientColor=#7ea6e0;strokeColor=#6c8ebf;gradientDirection=south;" parent="1" vertex="1">
          <mxGeometry x="140" y="80" width="380" height="200" as="geometry" />
        </mxCell>
        <mxCell id="3OyVJiL9PxeMtA3ROown-4" value="" style="endArrow=classic;html=1;rounded=0;entryX=1;entryY=0.5;entryDx=0;entryDy=0;exitX=0;exitY=0.5;exitDx=0;exitDy=0;" edge="1" parent="1" source="KQq-jne4eLTsKQbyyCht-2" target="KQq-jne4eLTsKQbyyCht-4">
          <mxGeometry width="50" height="50" relative="1" as="geometry">
            <mxPoint x="950" y="250" as="sourcePoint" />
            <mxPoint x="1000" y="200" as="targetPoint" />
            <Array as="points">
              <mxPoint x="860" y="610" />
              <mxPoint x="860" y="-100" />
            </Array>
          </mxGeometry>
        </mxCell>
        <mxCell id="3OyVJiL9PxeMtA3ROown-5" value="" style="endArrow=classic;html=1;rounded=0;entryX=1;entryY=0.5;entryDx=0;entryDy=0;" edge="1" parent="1" target="3yvrbYruW_UysVOHIJBn-4">
          <mxGeometry width="50" height="50" relative="1" as="geometry">
            <mxPoint x="860" y="180" as="sourcePoint" />
            <mxPoint x="910" y="10" as="targetPoint" />
          </mxGeometry>
        </mxCell>
        <mxCell id="3OyVJiL9PxeMtA3ROown-6" value="" style="endArrow=classic;html=1;rounded=0;entryX=1;entryY=0.5;entryDx=0;entryDy=0;" edge="1" parent="1" target="KQq-jne4eLTsKQbyyCht-5">
          <mxGeometry width="50" height="50" relative="1" as="geometry">
            <mxPoint x="860" y="420" as="sourcePoint" />
            <mxPoint x="890" y="330" as="targetPoint" />
          </mxGeometry>
        </mxCell>
        <mxCell id="3OyVJiL9PxeMtA3ROown-44" style="edgeStyle=orthogonalEdgeStyle;rounded=0;orthogonalLoop=1;jettySize=auto;html=1;exitX=0;exitY=0.5;exitDx=0;exitDy=0;entryX=1;entryY=0.5;entryDx=0;entryDy=0;" edge="1" parent="1" source="3OyVJiL9PxeMtA3ROown-8" target="3yvrbYruW_UysVOHIJBn-50">
          <mxGeometry relative="1" as="geometry">
            <Array as="points">
              <mxPoint x="130" y="230" />
              <mxPoint x="130" y="140" />
            </Array>
          </mxGeometry>
        </mxCell>
        <mxCell id="3OyVJiL9PxeMtA3ROown-8" value="&lt;font style=&quot;font-size: 18px;&quot;&gt;Monitor&lt;/font&gt;&lt;div&gt;&lt;font style=&quot;font-size: 18px;&quot;&gt;Reset&lt;/font&gt;&lt;/div&gt;" style="rounded=0;whiteSpace=wrap;html=1;fillColor=#fff2cc;gradientColor=#ffd966;strokeColor=#d6b656;gradientDirection=north;" vertex="1" parent="1">
          <mxGeometry x="360" y="200" width="140" height="60" as="geometry" />
        </mxCell>
        <mxCell id="3OyVJiL9PxeMtA3ROown-30" style="edgeStyle=orthogonalEdgeStyle;rounded=0;orthogonalLoop=1;jettySize=auto;html=1;exitX=1;exitY=0.5;exitDx=0;exitDy=0;entryX=0;entryY=0.25;entryDx=0;entryDy=0;" edge="1" parent="1" source="3OyVJiL9PxeMtA3ROown-10" target="3yvrbYruW_UysVOHIJBn-4">
          <mxGeometry relative="1" as="geometry" />
        </mxCell>
        <mxCell id="3OyVJiL9PxeMtA3ROown-10" value="&lt;font style=&quot;font-size: 18px;&quot;&gt;Driver&lt;/font&gt;&lt;div&gt;&lt;font style=&quot;font-size: 18px;&quot;&gt;Reset&lt;/font&gt;&lt;/div&gt;" style="rounded=0;whiteSpace=wrap;html=1;fillColor=#d5e8d4;gradientColor=#97d077;strokeColor=#82b366;gradientDirection=north;" vertex="1" parent="1">
          <mxGeometry x="360" y="100" width="140" height="60" as="geometry" />
        </mxCell>
        <mxCell id="3OyVJiL9PxeMtA3ROown-35" style="edgeStyle=orthogonalEdgeStyle;rounded=0;orthogonalLoop=1;jettySize=auto;html=1;exitX=1;exitY=0.5;exitDx=0;exitDy=0;entryX=0;entryY=0.5;entryDx=0;entryDy=0;" edge="1" parent="1" source="3OyVJiL9PxeMtA3ROown-11" target="3OyVJiL9PxeMtA3ROown-10">
          <mxGeometry relative="1" as="geometry" />
        </mxCell>
        <mxCell id="3OyVJiL9PxeMtA3ROown-11" value="&lt;font style=&quot;font-size: 18px;&quot;&gt;Sequencer&lt;/font&gt;&lt;div&gt;&lt;font style=&quot;font-size: 18px;&quot;&gt;Upstream&lt;/font&gt;&lt;/div&gt;" style="rounded=0;whiteSpace=wrap;html=1;fillColor=#e6d0de;gradientColor=#d5739d;strokeColor=#996185;gradientDirection=north;" vertex="1" parent="1">
          <mxGeometry x="160" y="100" width="140" height="60" as="geometry" />
        </mxCell>
        <mxCell id="3OyVJiL9PxeMtA3ROown-12" value="&lt;font style=&quot;font-size: 18px;&quot;&gt;Agent Reset&lt;/font&gt;&lt;span style=&quot;color: rgba(0, 0, 0, 0); font-family: monospace; font-size: 0px; text-align: start; text-wrap-mode: nowrap;&quot;&gt;%3CmxGraphModel%3E%3Croot%3E%3CmxCell%20id%3D%220%22%2F%3E%3CmxCell%20id%3D%221%22%20parent%3D%220%22%2F%3E%3CmxCell%20id%3D%222%22%20value%3D%22%26lt%3Bfont%20style%3D%26quot%3Bfont-size%3A%2018px%3B%26quot%3B%26gt%3BAgent%20Upstream%26lt%3B%2Ffont%26gt%3B%22%20style%3D%22text%3Bhtml%3D1%3Balign%3Dcenter%3BverticalAlign%3Dmiddle%3BwhiteSpace%3Dwrap%3Brounded%3D0%3B%22%20vertex%3D%221%22%20parent%3D%221%22%3E%3CmxGeometry%20x%3D%22150%22%20y%3D%22-40%22%20width%3D%22140%22%20height%3D%2230%22%20as%3D%22geometry%22%2F%3E%3C%2FmxCell%3E%3C%2Froot%3E%3C%2FmxGraphModel%3E&lt;/span&gt;" style="text;html=1;align=center;verticalAlign=middle;whiteSpace=wrap;rounded=0;" vertex="1" parent="1">
          <mxGeometry x="150" y="240" width="140" height="30" as="geometry" />
        </mxCell>
        <mxCell id="3OyVJiL9PxeMtA3ROown-13" value="&lt;font style=&quot;font-size: 18px;&quot;&gt;Agent Downstream&lt;/font&gt;" style="text;html=1;align=center;verticalAlign=middle;whiteSpace=wrap;rounded=0;" vertex="1" parent="1">
          <mxGeometry x="160" y="480" width="160" height="30" as="geometry" />
        </mxCell>
        <mxCell id="3OyVJiL9PxeMtA3ROown-28" style="edgeStyle=orthogonalEdgeStyle;rounded=0;orthogonalLoop=1;jettySize=auto;html=1;exitX=1;exitY=0.5;exitDx=0;exitDy=0;entryX=0;entryY=0.25;entryDx=0;entryDy=0;" edge="1" parent="1" source="3yvrbYruW_UysVOHIJBn-33" target="KQq-jne4eLTsKQbyyCht-4">
          <mxGeometry relative="1" as="geometry" />
        </mxCell>
        <mxCell id="3OyVJiL9PxeMtA3ROown-36" value="" style="shape=flexArrow;endArrow=classic;startArrow=classic;html=1;rounded=0;fillColor=#647687;strokeColor=#314354;" edge="1" parent="1">
          <mxGeometry width="100" height="100" relative="1" as="geometry">
            <mxPoint x="830" y="-50" as="sourcePoint" />
            <mxPoint x="1100" y="-50" as="targetPoint" />
          </mxGeometry>
        </mxCell>
        <mxCell id="3OyVJiL9PxeMtA3ROown-38" value="" style="shape=flexArrow;endArrow=classic;startArrow=classic;html=1;rounded=0;fillColor=#647687;strokeColor=#314354;exitX=1;exitY=0.75;exitDx=0;exitDy=0;entryX=-0.008;entryY=0.597;entryDx=0;entryDy=0;entryPerimeter=0;" edge="1" parent="1" source="3yvrbYruW_UysVOHIJBn-4" target="KQq-jne4eLTsKQbyyCht-1">
          <mxGeometry width="100" height="100" relative="1" as="geometry">
            <mxPoint x="840" y="-40" as="sourcePoint" />
            <mxPoint x="1116" y="-40" as="targetPoint" />
          </mxGeometry>
        </mxCell>
        <mxCell id="3OyVJiL9PxeMtA3ROown-39" value="" style="shape=flexArrow;endArrow=classic;startArrow=classic;html=1;rounded=0;fillColor=#647687;strokeColor=#314354;" edge="1" parent="1">
          <mxGeometry width="100" height="100" relative="1" as="geometry">
            <mxPoint x="830" y="469.73" as="sourcePoint" />
            <mxPoint x="1100" y="470" as="targetPoint" />
          </mxGeometry>
        </mxCell>
        <mxCell id="3OyVJiL9PxeMtA3ROown-31" style="edgeStyle=orthogonalEdgeStyle;rounded=0;orthogonalLoop=1;jettySize=auto;html=1;exitX=0;exitY=0.75;exitDx=0;exitDy=0;entryX=1;entryY=0.5;entryDx=0;entryDy=0;" edge="1" parent="1" source="3yvrbYruW_UysVOHIJBn-4" target="3OyVJiL9PxeMtA3ROown-8">
          <mxGeometry relative="1" as="geometry" />
        </mxCell>
        <mxCell id="3OyVJiL9PxeMtA3ROown-48" style="edgeStyle=orthogonalEdgeStyle;rounded=0;orthogonalLoop=1;jettySize=auto;html=1;exitX=1;exitY=0.25;exitDx=0;exitDy=0;entryX=0;entryY=0.5;entryDx=0;entryDy=0;" edge="1" parent="1" source="3OyVJiL9PxeMtA3ROown-47" target="3yvrbYruW_UysVOHIJBn-38">
          <mxGeometry relative="1" as="geometry">
            <Array as="points">
              <mxPoint x="-120" y="50" />
              <mxPoint x="-120" y="-150" />
            </Array>
          </mxGeometry>
        </mxCell>
        <mxCell id="3OyVJiL9PxeMtA3ROown-49" style="edgeStyle=orthogonalEdgeStyle;rounded=0;orthogonalLoop=1;jettySize=auto;html=1;exitX=1;exitY=0.75;exitDx=0;exitDy=0;entryX=0;entryY=0.5;entryDx=0;entryDy=0;" edge="1" parent="1" source="3OyVJiL9PxeMtA3ROown-47" target="3yvrbYruW_UysVOHIJBn-39">
          <mxGeometry relative="1" as="geometry">
            <Array as="points">
              <mxPoint x="-120" y="230" />
              <mxPoint x="-120" y="370" />
            </Array>
          </mxGeometry>
        </mxCell>
        <mxCell id="3OyVJiL9PxeMtA3ROown-47" value="&lt;font style=&quot;font-size: 24px;&quot;&gt;Virtual Sequencer&lt;/font&gt;" style="rounded=0;whiteSpace=wrap;html=1;fillColor=#e6d0de;gradientColor=#d5739d;strokeColor=#996185;gradientDirection=north;" vertex="1" parent="1">
          <mxGeometry x="-260" y="-40" width="120" height="360" as="geometry" />
        </mxCell>
        <mxCell id="3OyVJiL9PxeMtA3ROown-50" value="" style="endArrow=classic;html=1;rounded=0;entryX=0;entryY=0.5;entryDx=0;entryDy=0;exitX=1.011;exitY=0.387;exitDx=0;exitDy=0;exitPerimeter=0;" edge="1" parent="1" source="3OyVJiL9PxeMtA3ROown-47" target="3OyVJiL9PxeMtA3ROown-11">
          <mxGeometry width="50" height="50" relative="1" as="geometry">
            <mxPoint x="90" y="220" as="sourcePoint" />
            <mxPoint x="140" y="170" as="targetPoint" />
            <Array as="points">
              <mxPoint x="100" y="99" />
              <mxPoint x="100" y="130" />
            </Array>
          </mxGeometry>
        </mxCell>
        <mxCell id="3yvrbYruW_UysVOHIJBn-50" value="&lt;font style=&quot;font-size: 24px;&quot;&gt;Scoreboard&lt;/font&gt;" style="rounded=0;whiteSpace=wrap;html=1;fillColor=#FFB366;gradientColor=#994C00;strokeColor=#6c8ebf;opacity=70;" parent="1" vertex="1">
          <mxGeometry x="-90" y="-30" width="150" height="340" as="geometry" />
        </mxCell>
        <mxCell id="3OyVJiL9PxeMtA3ROown-56" style="edgeStyle=orthogonalEdgeStyle;rounded=0;orthogonalLoop=1;jettySize=auto;html=1;exitX=1;exitY=0.5;exitDx=0;exitDy=0;entryX=0;entryY=0.5;entryDx=0;entryDy=0;" edge="1" parent="1" source="3OyVJiL9PxeMtA3ROown-55" target="3OyVJiL9PxeMtA3ROown-47">
          <mxGeometry relative="1" as="geometry" />
        </mxCell>
        <mxCell id="3OyVJiL9PxeMtA3ROown-55" value="&lt;font style=&quot;font-size: 24px;&quot;&gt;Virtual Sequence&lt;/font&gt;" style="rounded=0;whiteSpace=wrap;html=1;fillColor=#f8cecc;gradientColor=#ea6b66;strokeColor=#b85450;gradientDirection=north;" vertex="1" parent="1">
          <mxGeometry x="-560" y="-40" width="140" height="360" as="geometry" />
        </mxCell>
        <mxCell id="3OyVJiL9PxeMtA3ROown-57" value="Upstream sequence" style="rounded=0;whiteSpace=wrap;html=1;fillColor=#f8cecc;gradientColor=#ea6b66;strokeColor=#b85450;gradientDirection=north;" vertex="1" parent="1">
          <mxGeometry x="-720" width="120" height="60" as="geometry" />
        </mxCell>
        <mxCell id="3OyVJiL9PxeMtA3ROown-58" value="Downstream sequence" style="rounded=0;whiteSpace=wrap;html=1;fillColor=#f8cecc;gradientColor=#ea6b66;strokeColor=#b85450;gradientDirection=north;" vertex="1" parent="1">
          <mxGeometry x="-720" y="220" width="120" height="60" as="geometry" />
        </mxCell>
        <mxCell id="3OyVJiL9PxeMtA3ROown-60" style="edgeStyle=orthogonalEdgeStyle;rounded=0;orthogonalLoop=1;jettySize=auto;html=1;exitX=1;exitY=0.5;exitDx=0;exitDy=0;entryX=0;entryY=0.5;entryDx=0;entryDy=0;" edge="1" parent="1" source="3OyVJiL9PxeMtA3ROown-59" target="3OyVJiL9PxeMtA3ROown-55">
          <mxGeometry relative="1" as="geometry" />
        </mxCell>
        <mxCell id="3OyVJiL9PxeMtA3ROown-59" value="Reset sequence" style="rounded=0;whiteSpace=wrap;html=1;fillColor=#f8cecc;gradientColor=#ea6b66;strokeColor=#b85450;gradientDirection=north;" vertex="1" parent="1">
          <mxGeometry x="-720" y="110" width="120" height="60" as="geometry" />
        </mxCell>
        <mxCell id="3OyVJiL9PxeMtA3ROown-61" style="edgeStyle=orthogonalEdgeStyle;rounded=0;orthogonalLoop=1;jettySize=auto;html=1;exitX=1;exitY=0.5;exitDx=0;exitDy=0;entryX=0.011;entryY=0.196;entryDx=0;entryDy=0;entryPerimeter=0;" edge="1" parent="1" source="3OyVJiL9PxeMtA3ROown-57" target="3OyVJiL9PxeMtA3ROown-55">
          <mxGeometry relative="1" as="geometry" />
        </mxCell>
        <mxCell id="3OyVJiL9PxeMtA3ROown-62" style="edgeStyle=orthogonalEdgeStyle;rounded=0;orthogonalLoop=1;jettySize=auto;html=1;exitX=1;exitY=0.5;exitDx=0;exitDy=0;entryX=-0.016;entryY=0.804;entryDx=0;entryDy=0;entryPerimeter=0;" edge="1" parent="1" source="3OyVJiL9PxeMtA3ROown-58" target="3OyVJiL9PxeMtA3ROown-55">
          <mxGeometry relative="1" as="geometry" />
        </mxCell>
      </root>
    </mxGraphModel>
  </diagram>
</mxfile>
